<svg width="19" height="19" viewBox="0 0 19 19" fill="none" xmlns="http://www.w3.org/2000/svg">
<path d="M18.4 7.2523H1.05121C1.01193 7.2523 0.973036 7.25974 0.936746 7.2742C0.900455 7.28865 0.867481 7.30983 0.839705 7.33654C0.81193 7.36324 0.789897 7.39495 0.774865 7.42984C0.759833 7.46473 0.752096 7.50213 0.752096 7.5399V15.1611C0.694125 15.5517 0.731531 15.95 0.861351 16.3243C0.991171 16.6987 1.20984 17.0388 1.50005 17.3179C1.79026 17.5969 2.14404 17.8071 2.53339 17.932C2.92273 18.0568 3.33696 18.0927 3.74326 18.037H15.7079C16.1142 18.0927 16.5284 18.0568 16.9178 17.932C17.3071 17.8071 17.6609 17.5969 17.9511 17.3179C18.2413 17.0388 18.46 16.6987 18.5898 16.3243C18.7196 15.95 18.757 15.5517 18.6991 15.1611V7.5399C18.6991 7.50213 18.6913 7.46473 18.6763 7.42984C18.6613 7.39495 18.6392 7.36324 18.6115 7.33654C18.5837 7.30983 18.5507 7.28865 18.5144 7.2742C18.4781 7.25974 18.4392 7.2523 18.4 7.2523V7.2523ZM13.0976 11.8864L11.8403 13.0367C11.7952 13.0778 11.7614 13.129 11.742 13.1857C11.7225 13.2424 11.7179 13.3029 11.7287 13.3617L12.0158 14.9387C12.0276 15.0112 12.0182 15.0854 11.9887 15.1531C11.9592 15.2207 11.9107 15.2792 11.8488 15.322C11.7868 15.3648 11.7137 15.3903 11.6376 15.3956C11.5614 15.4008 11.4853 15.3857 11.4176 15.3519L9.91004 14.606C9.85412 14.5788 9.79229 14.5645 9.72957 14.5645C9.66686 14.5645 9.60503 14.5788 9.54911 14.606L8.04256 15.3519C7.97459 15.3879 7.89745 15.405 7.81991 15.401C7.74238 15.397 7.66757 15.3722 7.60399 15.3293C7.54041 15.2865 7.49061 15.2273 7.46027 15.1586C7.42993 15.0899 7.42026 15.0143 7.43236 14.9406L7.71951 13.3646C7.73028 13.3058 7.72571 13.2453 7.70623 13.1886C7.68674 13.1319 7.65294 13.0807 7.60784 13.0396L6.35056 11.8892C6.29867 11.8416 6.26192 11.7808 6.24457 11.7139C6.22721 11.647 6.22998 11.5767 6.25254 11.5112C6.2751 11.4457 6.31652 11.3878 6.372 11.344C6.42748 11.3003 6.49472 11.2726 6.56592 11.2642L8.30379 11.0265C8.36569 11.0183 8.42464 10.9959 8.47565 10.9612C8.52667 10.9265 8.56826 10.8805 8.59692 10.8271L9.3497 9.38911C9.38505 9.32335 9.43854 9.26819 9.50431 9.2297C9.57008 9.1912 9.64559 9.17083 9.72259 9.17083C9.79959 9.17083 9.87511 9.1912 9.94088 9.2297C10.0067 9.26819 10.0601 9.32335 10.0955 9.38911L10.8483 10.8271C10.8769 10.8805 10.9185 10.9265 10.9695 10.9612C11.0206 10.9959 11.0795 11.0183 11.1414 11.0265L12.8793 11.2642C12.9501 11.2726 13.017 11.3001 13.0723 11.3434C13.1276 11.3868 13.1691 11.4443 13.1919 11.5093C13.2147 11.5743 13.218 11.6442 13.2013 11.7109C13.1846 11.7776 13.1487 11.8384 13.0976 11.8864V11.8864ZM18.6991 5.09536V5.52675C18.6991 5.60303 18.6676 5.67618 18.6115 5.73011C18.5554 5.78404 18.4793 5.81434 18.4 5.81434H1.05121C0.971882 5.81434 0.8958 5.78404 0.839705 5.73011C0.78361 5.67618 0.752096 5.60303 0.752096 5.52675V5.09536C0.694125 4.70471 0.731531 4.30645 0.861351 3.93211C0.991171 3.55776 1.20984 3.21761 1.50005 2.93858C1.79026 2.65955 2.14404 2.44931 2.53339 2.32449C2.92273 2.19967 3.33696 2.1637 3.74326 2.21944H4.98958V0.78148C4.98958 0.590795 5.06836 0.407919 5.2086 0.273084C5.34884 0.138249 5.53904 0.0625 5.73737 0.0625C5.93569 0.0625 6.1259 0.138249 6.26614 0.273084C6.40637 0.407919 6.48516 0.590795 6.48516 0.78148V2.21944H12.966V0.78148C12.966 0.590795 13.0448 0.407919 13.185 0.273084C13.3253 0.138249 13.5155 0.0625 13.7138 0.0625C13.9121 0.0625 14.1023 0.138249 14.2426 0.273084C14.3828 0.407919 14.4616 0.590795 14.4616 0.78148V2.21944H15.7079C16.1142 2.1637 16.5284 2.19967 16.9178 2.32449C17.3071 2.44931 17.6609 2.65955 17.9511 2.93858C18.2413 3.21761 18.46 3.55776 18.5898 3.93211C18.7196 4.30645 18.757 4.70471 18.6991 5.09536V5.09536Z" fill="#A4B1CA"/>
</svg>
