<svg width="17" height="20" viewBox="0 0 17 20" fill="none" xmlns="http://www.w3.org/2000/svg">
<path d="M8.21661 9.63409C9.54016 9.63409 10.6862 9.15939 11.6227 8.22281C12.5591 7.28638 13.0338 6.14059 13.0338 4.81689C13.0338 3.49365 12.5591 2.34772 11.6225 1.41098C10.6859 0.474701 9.54001 0 8.21661 0C6.89291 0 5.74713 0.474701 4.8107 1.41113C3.87427 2.34756 3.39941 3.4935 3.39941 4.81689C3.39941 6.14059 3.87427 7.28653 4.81085 8.22296C5.74744 9.15924 6.89337 9.63409 8.21661 9.63409V9.63409Z" fill="#A4B1CA"/>
<path d="M16.6457 15.379C16.6187 14.9893 16.564 14.5642 16.4836 14.1153C16.4024 13.663 16.2979 13.2354 16.1728 12.8447C16.0435 12.4408 15.8678 12.0419 15.6505 11.6597C15.425 11.2629 15.1601 10.9175 14.8628 10.6332C14.552 10.3358 14.1714 10.0967 13.7314 9.9223C13.2928 9.74881 12.8069 9.66092 12.287 9.66092C12.0828 9.66092 11.8854 9.74469 11.5041 9.99295C11.2694 10.146 10.9949 10.323 10.6885 10.5188C10.4265 10.6857 10.0716 10.8421 9.63318 10.9837C9.20547 11.1221 8.77121 11.1923 8.34259 11.1923C7.91397 11.1923 7.47986 11.1221 7.0517 10.9837C6.61377 10.8423 6.25885 10.6859 5.99716 10.5189C5.69366 10.325 5.41901 10.148 5.18082 9.9928C4.79996 9.74454 4.60236 9.66077 4.39819 9.66077C3.87817 9.66077 3.39233 9.74881 2.95395 9.92245C2.51419 10.0966 2.13348 10.3357 1.82236 10.6334C1.52527 10.9178 1.26022 11.2631 1.035 11.6597C0.817871 12.0419 0.64209 12.4406 0.512695 12.8448C0.387726 13.2356 0.283203 13.663 0.202026 14.1153C0.121613 14.5636 0.0669861 14.9888 0.039978 15.3795C0.0134277 15.7621 0 16.1593 0 16.5605C0 17.6045 0.331879 18.4497 0.986328 19.073C1.63269 19.6881 2.48795 20.0001 3.52798 20.0001H13.1581C14.1982 20.0001 15.0531 19.6882 15.6996 19.073C16.3542 18.4501 16.6861 17.6048 16.6861 16.5603C16.6859 16.1573 16.6724 15.7599 16.6457 15.379V15.379Z" fill="#A4B1CA"/>
</svg>
