<svg width="22" height="22" viewBox="0 0 22 22" fill="none" xmlns="http://www.w3.org/2000/svg">
<g clip-path="url(#clip0_375_225)">
<path d="M18.4361 7.15161L20.0147 4.51944L17.4806 1.98529L14.8482 3.56389C14.4298 3.34686 13.9904 3.16559 13.5372 3.02141L12.7919 0H9.20807L8.46283 3.02141C8.00964 3.16559 7.57022 3.34686 7.15161 3.56389L4.51944 1.98529L1.98529 4.51944L3.56389 7.15178C3.34686 7.57022 3.16559 8.00964 3.02141 8.46283L0 9.20807V12.7919L3.02141 13.5372C3.16559 13.9904 3.34686 14.4298 3.56389 14.8484L1.98529 17.4806L4.51944 20.0147L7.15178 18.4361C7.57022 18.6533 8.00964 18.8344 8.46283 18.9786L9.20807 22H12.7919L13.5372 18.9786C13.9904 18.8344 14.4298 18.6531 14.8484 18.4361L17.4806 20.0147L20.0147 17.4806L18.4361 14.8482C18.6533 14.4298 18.8344 13.9904 18.9786 13.5372L22 12.7919V9.20807L18.9786 8.46283C18.8344 8.00964 18.6531 7.57022 18.4361 7.15161V7.15161ZM11 16.8008C7.80135 16.8008 5.19922 14.1987 5.19922 11C5.19922 7.80135 7.80135 5.19922 11 5.19922C14.1987 5.19922 16.8008 7.80135 16.8008 11C16.8008 14.1987 14.1987 16.8008 11 16.8008Z" fill="white"/>
<path d="M12.9336 9.71094C12.9336 8.64478 12.0662 7.77734 11 7.77734C9.93384 7.77734 9.06641 8.64478 9.06641 9.71094C9.06641 10.7771 9.93384 11.6445 11 11.6445C12.0662 11.6445 12.9336 10.7771 12.9336 9.71094Z" fill="white"/>
<path d="M11 11.6445C9.45312 11.6445 8.15114 12.7402 7.8418 14.2097C8.65384 15.0219 9.77539 15.5117 11 15.5117C12.2246 15.5117 13.3462 15.0219 14.1582 14.2097C13.8556 12.7271 12.5428 11.6445 11 11.6445Z" fill="white"/>
</g>
<defs>
<clipPath id="clip0_375_225">
<rect width="22" height="22" fill="white"/>
</clipPath>
</defs>
</svg>
