<svg width="19" height="19" viewBox="0 0 19 19" fill="none" xmlns="http://www.w3.org/2000/svg">
<g clip-path="url(#clip0_375_244)">
<path d="M18.1253 14.0975C18.135 13.9206 18.1419 13.7435 18.1461 13.5661C18.1602 13.0313 17.7152 12.6283 17.1126 12.6057C16.8829 12.5975 16.5266 12.5971 16.0735 12.6005C16.2728 10.1104 15.9934 5.68256 15.675 4.36221C15.4735 3.36916 14.8957 2.39801 14.1138 1.62688C13.3319 0.855742 12.3834 0.328047 11.4245 0.181465L11.3948 0.177012C10.2247 0 9.83433 0.00296875 9.54524 0C9.03462 0.00333984 8.77597 0 7.60517 0.175156L7.57548 0.179609C6.61657 0.328047 5.67103 0.855 4.88616 1.62688C4.1013 2.39875 3.52573 3.3673 3.32497 4.36035C3.00657 5.68219 2.72714 10.1123 2.92642 12.6005C2.47405 12.5971 2.1178 12.5975 1.88735 12.6057C1.28507 12.6287 0.839386 13.0313 0.853858 13.5664C0.857817 13.7436 0.864867 13.9206 0.875011 14.0975C0.898761 14.5231 1.32478 14.9243 1.79384 14.9684C6.92026 15.4386 12.0789 15.4386 17.2054 14.9684C17.6752 14.9243 18.1012 14.5231 18.1253 14.0975V14.0975Z" fill="#A4B1CA"/>
<path d="M9.5005 19C8.21392 19 7.07317 17.7987 6.98708 16.4045C6.98449 16.3734 6.9886 16.3422 6.99911 16.3128C7.00962 16.2834 7.0263 16.2566 7.04803 16.2342C7.06975 16.2118 7.09602 16.1943 7.12506 16.1829C7.15411 16.1716 7.18526 16.1665 7.21642 16.1682C8.74013 16.2176 10.2628 16.2176 11.7846 16.1682C11.8157 16.1665 11.8469 16.1716 11.8759 16.1829C11.905 16.1943 11.9312 16.2118 11.953 16.2342C11.9747 16.2566 11.9914 16.2834 12.0019 16.3128C12.0124 16.3422 12.0165 16.3734 12.0139 16.4045C11.9278 17.7987 10.7871 19 9.5005 19V19Z" fill="#A4B1CA"/>
</g>
<defs>
<clipPath id="clip0_375_244">
<rect width="19" height="19" fill="white"/>
</clipPath>
</defs>
</svg>
