<svg width="20" height="20" viewBox="0 0 20 20" fill="none" xmlns="http://www.w3.org/2000/svg">
<path d="M9.70971 10.945V2.69091C9.71118 2.62758 9.70005 2.5646 9.67697 2.5056C9.6539 2.4466 9.61934 2.39276 9.57529 2.34721C9.53125 2.30166 9.4786 2.26529 9.42039 2.24023C9.36218 2.21516 9.29957 2.20188 9.23619 2.20117C2.54633 2.48731 -2.17787 10.1581 3.04188 17.2786L3.3392 17.5757C10.4145 22.7923 18.112 18.0875 18.4533 11.4402C18.4534 11.3117 18.4035 11.1881 18.3141 11.0957C18.2247 11.0033 18.1029 10.9493 17.9743 10.945H9.71522H9.70971Z" fill="#A4B1CA"/>
<path d="M11.1418 1.76621V9.51402H18.8503C18.9766 9.51474 19.1018 9.49051 19.2186 9.44272C19.3355 9.39493 19.4418 9.32452 19.5313 9.23554C19.6209 9.14655 19.6919 9.04076 19.7404 8.92423C19.7889 8.80771 19.8139 8.68275 19.8139 8.55655C19.8139 8.51803 19.8139 8.47401 19.8139 8.43549C19.5688 6.50521 18.6908 4.71043 17.3171 3.33159C15.9434 1.95275 14.1514 1.06752 12.221 0.814241C12.0952 0.79887 11.9675 0.80847 11.8454 0.842491C11.7233 0.876511 11.6091 0.934283 11.5093 1.01249C11.4096 1.09071 11.3263 1.18782 11.2642 1.29827C11.202 1.40873 11.1623 1.53034 11.1473 1.65615C11.1428 1.69265 11.1409 1.72944 11.1418 1.76621V1.76621Z" fill="#A4B1CA"/>
</svg>
