<svg width="19" height="19" viewBox="0 0 19 19" fill="none" xmlns="http://www.w3.org/2000/svg">
<path d="M18.5782 7.84693L16.3988 7.31096C16.2678 6.89782 16.0993 6.49718 15.8959 6.11396C16.2232 5.56926 16.9109 4.42284 16.9109 4.42284C17.0424 4.20379 17.0076 3.92328 16.8271 3.74281L15.2529 2.16856C15.0724 1.98754 14.7925 1.95277 14.5729 2.08484L12.879 3.09975C12.4979 2.89806 12.0995 2.73118 11.6891 2.60126L11.1531 0.421859C11.0911 0.173969 10.8688 0 10.6133 0H8.38672C8.13122 0 7.90834 0.173969 7.84693 0.421822C7.84693 0.421822 7.47565 1.94294 7.31147 2.6007C6.87388 2.7393 6.45098 2.91925 6.04816 3.13886L4.29181 2.08484C4.0722 1.95437 3.7928 1.9881 3.61178 2.16856L2.03753 3.74281C1.85706 3.92328 1.82226 4.20379 1.95381 4.42284L3.03993 6.23682C2.86488 6.58202 2.71811 6.94131 2.60126 7.30932L0.421859 7.84693C0.173969 7.9089 0 8.13122 0 8.38672V10.6133C0 10.8688 0.173969 11.0917 0.421822 11.1531L2.60178 11.689C2.73388 12.1082 2.90563 12.5153 3.11385 12.9062L2.14192 14.5261C2.01036 14.7451 2.04517 15.0256 2.22563 15.2061L3.79989 16.7803C3.97983 16.9603 4.2603 16.9945 4.47992 16.8641C4.47992 16.8641 5.56982 16.2107 6.10364 15.891C6.49013 16.097 6.89455 16.2672 7.31151 16.3993L7.84696 18.5781C7.90834 18.8261 8.13122 19 8.38672 19H10.6133C10.8688 19 11.0911 18.826 11.1531 18.5782L11.6885 16.3993C12.1174 16.2634 12.5305 16.0878 12.9236 15.8747C13.472 16.2036 14.5728 16.8641 14.5728 16.8641C14.7919 16.9951 15.0724 16.9614 15.2528 16.7803L16.8271 15.2061C17.0076 15.0256 17.0424 14.7451 16.9108 14.5261L15.9101 12.8588C16.1074 12.4843 16.271 12.0924 16.3987 11.689L18.5781 11.1531C18.8261 11.0911 19 10.8688 19 10.6133V8.38672C19 8.13122 18.8261 7.9089 18.5782 7.84693ZM9.5 13.3965C7.3517 13.3965 5.60352 11.6483 5.60352 9.5C5.60352 7.3517 7.3517 5.60352 9.5 5.60352C11.6483 5.60352 13.3965 7.3517 13.3965 9.5C13.3965 11.6483 11.6483 13.3965 9.5 13.3965Z" fill="white"/>
</svg>
