<svg width="21" height="21" viewBox="0 0 21 21" fill="none" xmlns="http://www.w3.org/2000/svg">
<path d="M15.7285 14.6959C15.1594 14.6959 14.6963 15.159 14.6963 15.7282C14.7482 17.0957 16.7091 17.0953 16.7608 15.7282C16.7608 15.159 16.2977 14.6959 15.7285 14.6959V14.6959Z" fill="white"/>
<path d="M10.5044 11.7563L11.3557 10.905C11.2608 10.7967 11.2028 10.6553 11.2028 10.5V9.84097C11.233 9.02554 12.4033 9.02616 12.4332 9.84097V10.0801C12.7253 9.97825 13.0562 9.95467 13.3627 10.017C13.6848 9.53713 14.2321 9.22574 14.843 9.22574H15.0692V0.615235C15.0692 0.275461 14.7937 0 14.454 0H3.91016C3.57038 0 3.29492 0.275461 3.29492 0.615235V17.0461H9.27947C9.24457 16.9072 9.22578 16.7622 9.22578 16.6133V14.843C9.22578 14.232 9.53725 13.6846 10.0172 13.3626C9.90553 12.7955 10.0725 12.1883 10.5044 11.7563V11.7563ZM11.2028 3.25119C11.233 2.43576 12.4033 2.43637 12.4332 3.25119V3.91019C12.403 4.72562 11.2328 4.72501 11.2028 3.91019V3.25119ZM11.2028 6.5461C11.233 5.73067 12.4033 5.73128 12.4332 6.5461V7.20506C12.403 8.02049 11.2328 8.01988 11.2028 7.20506V6.5461ZM7.16134 10.5C7.13107 11.3154 5.96086 11.3148 5.93087 10.5V9.84101C5.96114 9.02558 7.13136 9.0262 7.16134 9.84101V10.5ZM7.16134 7.2051C7.13107 8.02053 5.96086 8.01992 5.93087 7.2051V6.5461C5.96114 5.73067 7.13136 5.73128 7.16134 6.5461V7.2051ZM7.16134 3.91015C7.13107 4.72558 5.96086 4.72496 5.93087 3.91015V3.25119C5.96114 2.43576 7.13136 2.43637 7.16134 3.25119V3.91015ZM9.79729 10.5C9.76702 11.3154 8.59681 11.3148 8.56682 10.5V9.84101C8.59709 9.02558 9.76731 9.0262 9.79729 9.84101V10.5ZM9.79729 7.2051C9.76702 8.02053 8.59681 8.01992 8.56682 7.2051V6.5461C8.59709 5.73067 9.76731 5.73128 9.79729 6.5461V7.2051ZM9.79729 3.91015C9.76702 4.72558 8.59681 4.72496 8.56682 3.91015V3.25119C8.59709 2.43576 9.76731 2.43637 9.79729 3.25119V3.91015Z" fill="white"/>
<path d="M18.0938 10.0169C18.4003 9.95462 18.7313 9.97816 19.0232 10.08V5.88701C19.0232 5.72385 18.9584 5.56738 18.843 5.452L16.8661 3.47504C16.7206 3.328 16.5016 3.2634 16.2998 3.30942V9.22569H16.6135C17.2243 9.22569 17.7717 9.53712 18.0938 10.0169V10.0169Z" fill="white"/>
<path d="M20.5172 14.2963L19.8452 14.2124C19.8049 14.1029 19.7601 13.995 19.7111 13.8891L20.127 13.3542C20.2975 13.1349 20.2781 12.8229 20.0817 12.6264L18.8297 11.3745C18.6333 11.1781 18.3213 11.1587 18.1019 11.3292L17.5671 11.7451C17.461 11.6961 17.3532 11.6513 17.2438 11.611L17.1599 10.939C17.1254 10.6632 16.891 10.4563 16.6132 10.4563H14.8428C14.5649 10.4563 14.3305 10.6632 14.2961 10.939L14.2122 11.611C14.1028 11.6513 13.9948 11.696 13.8888 11.7451L13.354 11.3292C13.1347 11.1586 12.8227 11.178 12.6262 11.3745L11.3743 12.6264C11.1778 12.8229 11.1584 13.1348 11.3289 13.3542L11.7449 13.889C11.6959 13.9951 11.6511 14.103 11.6108 14.2124L10.9387 14.2963C10.663 14.3307 10.4561 14.5651 10.4561 14.843V16.6133C10.4561 16.8912 10.663 17.1256 10.9387 17.16L11.6107 17.2439C11.651 17.3534 11.6958 17.4613 11.7449 17.5673L11.3289 18.1021C11.1584 18.3214 11.1778 18.6335 11.3743 18.8299L12.6262 20.0818C12.8227 20.2783 13.1347 20.2977 13.354 20.1271L13.8889 19.7112C13.9949 19.7603 14.1028 19.805 14.2122 19.8453L14.2961 20.5173C14.3305 20.7931 14.5649 21 14.8428 21H16.6132C16.891 21 17.1254 20.7931 17.1599 20.5173L17.2438 19.8453C17.3532 19.805 17.4611 19.7603 17.5671 19.7112L18.1019 20.1271C18.3213 20.2977 18.6332 20.2782 18.8297 20.0818L20.0817 18.8298C20.2781 18.6333 20.2976 18.3213 20.127 18.102L19.711 17.5672C19.7601 17.4611 19.8048 17.3533 19.8452 17.2439L20.5172 17.16C20.7929 17.1256 20.9999 16.8912 20.9999 16.6133V14.8429C20.9999 14.5651 20.7929 14.3308 20.5172 14.2963V14.2963ZM15.728 17.9909C14.4803 17.9909 13.4653 16.9758 13.4653 15.7282C13.579 12.7305 17.8774 12.7313 17.9907 15.7282C17.9907 16.9759 16.9756 17.9909 15.728 17.9909Z" fill="white"/>
<path d="M0 7.86414V16.431C0 16.7707 0.275461 17.0462 0.615234 17.0462H2.06444V7.2489H0.615234C0.275461 7.2489 0 7.52436 0 7.86414V7.86414Z" fill="white"/>
</svg>
